# xmcd
#
# Track frame offsets:
#	150
#	12265
#	17182
#	20244
#	28997
#	45427
#	55647
#	68880
#	79080
#	91120
#	104797
#	110315
#	121877
#	134425
#	146362
#	157980
#	168527
#	181200
#	192835
#	204105
#	210927
#	223577
#	237465
#	246590
#	261484
#
# Disc length: 3624
#
# Revision: 2
# Processed by: cddbd v1.5.1PL0 Copyright (c) Steve Scherf et al.
# Submitted via: dBpowerAMP V4.0
# Normalized: r0:TSWAP
#
DISCID=620e2619
DTITLE=Various Artist - Country Music Gold
DYEAR=1996
DGENRE=Country
TTITLE0=Conway Twitty - Linda On My Mind
TTITLE1=Tammy Wynette - Your Good Girl's Gonna Go Bad
TTITLE2=Charlie Pride - All I have To Offer You (Is Me)
TTITLE3=Roger Miller - You Can't Rollerskate In A Buffalo Herd
TTITLE4=Billie Jo Spears - Blanket On The Ground
TTITLE5=David Houston - Living In A House Full Of Love
TTITLE6=Wanda Jackson - I Fall To Pieces
TTITLE7=Don Gibson - Lonesome Number One
TTITLE8=Johnny Cash - Highwayman
TTITLE9=Anne Murray - What About me
TTITLE10=Glen Campbell - Galveston
TTITLE11=Sammy Smith - Help Me Make It Through The Night
TTITLE12=Johnny Lee - Hey Bartender
TTITLE13=Jodie Miller - Queen Of The House
TTITLE14=Don Gibson - I Can't Stop Loving You
TTITLE15=Sue Thompson - Norman
TTITLE16=Johnny Cash - Jackson
TTITLE17=Roger Miller - Walkin' In The Sunshine
TTITLE18=Conway Twitty - Hello Darlin'
TTITLE19=Glen Campbell - Country Boy (You Got Your Feet In L.A.)
TTITLE20=Tom T Hall - That Song's Driving Me Crazy
TTITLE21=Barabara Fairchild - Teddy Bear song
TTITLE22=Ned Miller - Invisible Tears
TTITLE23=Lynn Anderson - We've Only Just Begun
TTITLE24=Johnny Cash - If I Were A Carpenter
EXTD=
EXTT0=
EXTT1=
EXTT2=
EXTT3=
EXTT4=
EXTT5=
EXTT6=
EXTT7=
EXTT8=
EXTT9=
EXTT10=
EXTT11=
EXTT12=
EXTT13=
EXTT14=
EXTT15=
EXTT16=
EXTT17=
EXTT18=
EXTT19=
EXTT20=
EXTT21=
EXTT22=
EXTT23=
EXTT24=
PLAYORDER=
